<?xml version="1.0" standalone="no"?>
<!DOCTYPE svg PUBLIC "-//W3C//DTD SVG 20010904//EN"
 "http://www.w3.org/TR/2001/REC-SVG-20010904/DTD/svg10.dtd">
<svg version="1.0" xmlns="http://www.w3.org/2000/svg"
 width="512.000000pt" height="512.000000pt" viewBox="0 0 512.000000 512.000000"
 preserveAspectRatio="xMidYMid meet">
<metadata>
Created by potrace 1.11, written by Peter Selinger 2001-2013
</metadata>
<g transform="translate(0.000000,512.000000) scale(0.100000,-0.100000)"
fill="#000000" stroke="none">
<path d="M2365 4824 c-113 -12 -264 -39 -380 -69 -788 -202 -1418 -832 -1620
-1620 -58 -228 -70 -323 -69 -580 0 -260 16 -379 78 -607 196 -713 742 -1291
1448 -1533 254 -87 454 -120 738 -120 375 1 675 70 1002 232 488 242 872 645
1082 1135 302 709 231 1514 -189 2148 -353 532 -888 878 -1530 991 -116 20
-453 34 -560 23z m510 -229 c669 -104 1247 -534 1540 -1148 272 -570 269
-1227 -8 -1792 -461 -938 -1540 -1379 -2532 -1035 -198 69 -449 210 -617 346
-83 69 -241 229 -309 314 -138 173 -272 421 -343 635 -180 543 -122 1150 158
1650 326 583 913 970 1586 1044 115 13 402 5 525 -14z"/>
<path d="M1550 3369 c-35 -14 -78 -57 -101 -101 -18 -36 -19 -67 -19 -705 l0
-668 23 -40 c12 -21 42 -53 65 -70 l44 -30 344 -3 344 -3 -6 -27 c-3 -15 -21
-63 -40 -107 -19 -45 -34 -86 -34 -93 0 -7 11 -24 25 -37 l24 -25 326 0 326 0
24 25 c14 13 25 30 25 37 0 7 -15 48 -34 93 -19 44 -37 92 -40 107 l-6 27 344
3 344 3 44 30 c23 17 53 49 65 70 l23 40 0 668 c0 638 -1 669 -19 705 -23 45
-66 87 -104 101 -38 15 -1951 14 -1987 0z m1950 -158 c14 -27 14 -965 0 -992
-10 -19 -32 -19 -955 -19 -923 0 -945 0 -955 19 -15 30 -14 983 2 999 9 9 235
12 955 12 921 0 943 0 953 -19z"/>
</g>
</svg>
